<svg width="103" height="65" viewBox="0 0 103 65" fill="none" xmlns="http://www.w3.org/2000/svg">
<g clip-path="url(#clip0_160_42)">
<path d="M86.6014 52.089H88.9568C89.8015 52.089 90.4182 52.2506 90.8069 52.5739C91.1437 52.8596 91.3121 53.2719 91.3121 53.8106V53.8879C91.3121 54.4267 91.1411 54.8413 90.7991 55.1317C90.4052 55.4643 89.7911 55.6306 88.9568 55.6306H85V50.4025H86.6014V52.089ZM88.8324 54.4782C89.1019 54.4782 89.304 54.4243 89.4387 54.3166C89.5786 54.2088 89.6486 54.0613 89.6486 53.8739V53.8247C89.6486 53.642 89.5786 53.4991 89.4387 53.396C89.304 53.293 89.1019 53.2414 88.8324 53.2414H86.6014V54.4782H88.8324ZM93.9007 50.4025V55.6306H92.2994V50.4025H93.9007Z" fill="#192853"/>
<path d="M79.7524 55.6306V51.5971H77.5136V50.4025H83.5848V51.5971H81.346V55.6306H79.7524Z" fill="#192853"/>
<path d="M74.8421 55.6306V53.5296H71.6161V55.6306H70.0147V50.4025H71.6161V52.342H74.8421V50.4025H76.4435V55.6306H74.8421Z" fill="#192853"/>
<path d="M63.3948 50.4025H68.6887V51.5409H64.9729V52.3912H68.5721V53.5717H64.9729V54.4782H68.7353V55.6306H63.3948V50.4025Z" fill="#192853"/>
<path d="M60.3651 55.6306V53.5296H57.139V55.6306H55.5377V50.4025H57.139V52.342H60.3651V50.4025H61.9664V55.6306H60.3651Z" fill="#192853"/>
<path d="M50.8917 50.3182C51.5343 50.3182 52.0836 50.3955 52.5397 50.5501C52.9957 50.7 53.3637 50.9084 53.6435 51.1755C53.8923 51.4144 54.0736 51.6838 54.1877 51.9836C54.3068 52.2834 54.3664 52.5879 54.3664 52.8971V53.1079C54.3664 53.4124 54.3068 53.7169 54.1877 54.0214C54.0736 54.3212 53.8923 54.5906 53.6435 54.8295C53.3585 55.1059 52.9879 55.3238 52.5319 55.483C52.0758 55.6376 51.5291 55.7149 50.8917 55.7149H50.5496C49.7152 55.7149 49.0156 55.5721 48.4507 55.2863C47.9584 55.038 47.6008 54.703 47.378 54.2814C47.1759 53.9207 47.0748 53.5295 47.0748 53.1079V52.8971C47.0748 52.4755 47.1759 52.0843 47.378 51.7236C47.606 51.302 47.9636 50.9717 48.4507 50.7328C49.0104 50.4564 49.7101 50.3182 50.5496 50.3182H50.8917ZM52.7029 52.9533C52.7029 52.5598 52.5759 52.2389 52.322 51.9906C51.9955 51.672 51.4617 51.5128 50.7206 51.5128C49.9951 51.5128 49.4639 51.672 49.127 51.9906C48.8679 52.2389 48.7384 52.5598 48.7384 52.9533V53.0517C48.7384 53.225 48.7695 53.396 48.8317 53.5647C48.8938 53.7333 48.9949 53.8832 49.1348 54.0144C49.4769 54.347 50.0055 54.5133 50.7206 54.5133C51.4565 54.5133 51.9903 54.347 52.322 54.0144C52.5759 53.7661 52.7029 53.4452 52.7029 53.0517V52.9533Z" fill="#192853"/>
<path d="M39.907 55.6306V50.4025H45.9004V55.6306H44.2991V51.555H41.5084V55.6306H39.907Z" fill="#192853"/>
<path d="M30.6075 55.6306V50.4025H32.7375L34.5798 53.9442L36.4766 50.4025H38.4744V55.6306H36.9119V52.2085L35.1551 55.6306H33.9035L32.1467 52.2085V55.6306H30.6075Z" fill="#192853"/>
<path d="M25.9616 50.3182C26.6042 50.3182 27.1535 50.3955 27.6096 50.5501C28.0656 50.7 28.4336 50.9084 28.7134 51.1755C28.9622 51.4144 29.1436 51.6838 29.2576 51.9836C29.3768 52.2834 29.4364 52.5879 29.4364 52.8971V53.1079C29.4364 53.4124 29.3768 53.7169 29.2576 54.0214C29.1436 54.3212 28.9622 54.5906 28.7134 54.8295C28.4284 55.1059 28.0579 55.3238 27.6018 55.483C27.1458 55.6376 26.599 55.7149 25.9616 55.7149H25.6195C24.7852 55.7149 24.0856 55.5721 23.5207 55.2863C23.0283 55.038 22.6708 54.703 22.4479 54.2814C22.2458 53.9207 22.1447 53.5295 22.1447 53.1079V52.8971C22.1447 52.4755 22.2458 52.0843 22.4479 51.7236C22.6759 51.302 23.0335 50.9717 23.5207 50.7328C24.0804 50.4564 24.78 50.3182 25.6195 50.3182H25.9616ZM27.7728 52.9533C27.7728 52.5598 27.6459 52.2389 27.3919 51.9906C27.0654 51.672 26.5316 51.5128 25.7906 51.5128C25.065 51.5128 24.5338 51.672 24.197 51.9906C23.9379 52.2389 23.8083 52.5598 23.8083 52.9533V53.0517C23.8083 53.225 23.8394 53.396 23.9016 53.5647C23.9638 53.7333 24.0648 53.8832 24.2047 54.0144C24.5468 54.347 25.0754 54.5133 25.7906 54.5133C26.5265 54.5133 27.0602 54.347 27.3919 54.0144C27.6459 53.7661 27.7728 53.4452 27.7728 53.0517V52.9533Z" fill="#192853"/>
<path d="M19.9988 55.6306L17.2159 53.1712V55.6306H15.6145V50.4025H17.2159V52.5528L19.9211 50.4025H21.9578L18.9105 52.7987L22.0899 55.6306H19.9988Z" fill="#192853"/>
<path d="M64.0809 64.4144V60.9009L60.6994 64.4144H59.098V59.1863H60.6994V62.6998L64.0809 59.1863H65.6823V64.4144H64.0809Z" fill="#192853"/>
<path d="M56.0644 64.4144V60.9009L52.6829 64.4144H51.0815V59.1863H52.6829V62.6998L56.0644 59.1863H57.6657V64.4144H56.0644Z" fill="#192853"/>
<path d="M45.35 64.4144V59.1863H50.1696V60.3387H46.9513V64.4144H45.35Z" fill="#192853"/>
<path d="M39.5194 62.742V64.4144H37.9181V59.1863H41.8359C42.691 59.1863 43.3181 59.3479 43.7172 59.6711C44.0592 59.9569 44.2302 60.3738 44.2302 60.922V60.9993C44.2302 61.5427 44.0566 61.9573 43.7094 62.243C43.3103 62.5756 42.6859 62.742 41.8359 62.742H39.5194ZM39.5194 61.5755H41.7193C42.2842 61.5755 42.5667 61.3764 42.5667 60.9782V60.9501C42.5667 60.7627 42.4967 60.6174 42.3568 60.5144C42.2169 60.4066 42.0044 60.3528 41.7193 60.3528H39.5194V61.5755Z" fill="#192853"/>
<path d="M31.2983 59.1863H36.5921V60.3247H32.8764V61.1749H36.4755V62.3555H32.8764V63.262H36.6388V64.4144H31.2983V59.1863Z" fill="#192853"/>
<path d="M28.2686 64.4144V62.3133H25.0426V64.4144H23.4412V59.1863H25.0426V61.1257H28.2686V59.1863H29.87V64.4144H28.2686Z" fill="#192853"/>
<path d="M22.2688 61.8917C22.2688 62.1868 22.2144 62.4843 22.1055 62.7841C21.9967 63.084 21.8257 63.3533 21.5925 63.5923C21.3178 63.8686 20.9602 64.0888 20.5197 64.2528C20.0792 64.4121 19.548 64.4917 18.9262 64.4917H18.5686C17.444 64.4917 16.5993 64.2598 16.0344 63.796C15.796 63.604 15.6198 63.3861 15.5058 63.1425C15.3918 62.8989 15.3348 62.6483 15.3348 62.3906V62.3695H16.9828C16.9879 62.4351 17.0138 62.5195 17.0605 62.6225C17.1071 62.7209 17.1849 62.8169 17.2937 62.9106C17.5995 63.187 18.0814 63.3252 18.7396 63.3252C19.2526 63.3252 19.6698 63.2222 19.9911 63.016C20.2658 62.838 20.455 62.6061 20.5586 62.3204H17.9234V61.2101H20.5586C20.455 60.929 20.2658 60.7065 19.9911 60.5425C19.6802 60.3598 19.2656 60.2685 18.7474 60.2685C18.0996 60.2685 17.6176 60.402 17.3015 60.669C17.1771 60.7768 17.0942 60.8798 17.0527 60.9782L16.9828 61.189H15.3348V61.175C15.3348 60.9126 15.3918 60.6596 15.5058 60.416C15.6198 60.1724 15.7986 59.9569 16.0422 59.7695C16.607 59.3292 17.4492 59.109 18.5686 59.109H18.9262C19.548 59.109 20.0792 59.1886 20.5197 59.3479C20.9654 59.5025 21.323 59.7157 21.5925 59.9874C21.8257 60.2263 21.9967 60.4957 22.1055 60.7955C22.2144 61.0906 22.2688 61.3858 22.2688 61.6809V61.8917Z" fill="#192853"/>
<path d="M103 23.876C103 26.284 102.552 28.7112 101.658 31.1576C100.763 33.6039 99.3574 35.8017 97.44 37.7512C95.1817 40.0063 92.242 41.8028 88.6208 43.1406C84.999 44.4402 80.6322 45.0901 75.5191 45.0901H72.5794C63.3342 45.0901 56.3895 43.198 51.7455 39.4139C49.7856 37.8467 48.337 36.0693 47.3997 34.0816C46.4624 32.094 45.9937 30.0491 45.9937 27.9468V27.7748H59.5423C59.5849 28.3099 59.7979 28.9979 60.1813 29.8388C60.5648 30.6416 61.2039 31.4251 62.0986 32.1896C64.6124 34.4448 68.5747 35.5724 73.9857 35.5724C78.2036 35.5724 81.633 34.7315 84.2747 33.0496C86.533 31.5971 88.0883 29.7051 88.9402 27.3734H67.2752V18.3145H88.9402C88.0883 16.021 86.533 14.2054 84.2747 12.8676C81.7185 11.3768 78.3098 10.6315 74.0492 10.6315C68.7237 10.6315 64.7615 11.7209 62.1625 13.8996C61.14 14.7787 60.4583 15.6196 60.1175 16.4224L59.5423 18.1424H45.9937V18.0278C45.9937 15.8873 46.4624 13.8231 47.3997 11.8355C48.337 9.84788 49.8069 8.0896 51.8094 6.5607C56.4534 2.96765 63.3768 1.17114 72.5794 1.17114H75.5191C80.6322 1.17114 84.999 1.82094 88.6208 3.12055C92.2848 4.38193 95.2245 6.1211 97.44 8.33807C99.3574 10.2875 100.763 12.4853 101.658 14.9316C102.552 17.3397 103 19.7478 103 22.1559V23.876Z" fill="#192853" fill-opacity="0.6"/>
<path fill-rule="evenodd" clip-rule="evenodd" d="M0 0L22.9969 20.4955H16.5189L28.827 40.991L5.83019 20.4955H12.3082L0 0Z" fill="#F5EA29"/>
<path fill-rule="evenodd" clip-rule="evenodd" d="M15.6767 13.9716L0 0L12.3082 20.4955H5.83019L15.6767 29.271V45.0901H29.0214V24.5947L52.2126 45.0901H69.6384L43.1434 21.491L68.5371 1.52258H51.5648L29.0214 19.4415V1.52258H15.6767V13.9716ZM15.6767 13.9716V29.271L28.827 40.991L16.5189 20.4955H22.9969L15.6767 13.9716Z" fill="#192853"/>
</g>
<defs>
<clipPath id="clip0_160_42">
<rect width="103" height="65" fill="white"/>
</clipPath>
</defs>
</svg>
