<svg width="60" height="61" viewBox="0 0 60 61" fill="none" xmlns="http://www.w3.org/2000/svg">
<path d="M34.1675 46.3499L35.8166 51.9616C35.3735 52.4833 35.0954 53.1491 35.0954 53.8852C35.0954 55.5342 36.4389 56.8754 38.0903 56.8754C39.5547 56.8754 40.7696 55.81 41.0197 54.4128H46.803C46.9733 55.9005 48.2257 57.0641 49.7586 57.0641C51.4088 57.0641 52.7512 55.723 52.7512 54.0746C52.7512 52.4237 51.4088 51.0802 49.7586 51.0802C48.6372 51.0802 47.6701 51.7091 47.1585 52.6262H40.7863C40.3105 51.6067 39.285 50.8944 38.0903 50.8944C37.8485 50.8944 37.6169 50.9307 37.3918 50.9849L36.4306 47.7143H51.3618C51.7924 47.7143 52.161 47.4082 52.2402 46.9853L54.9427 32.5133C54.9916 32.2524 54.9213 31.9827 54.7522 31.779C54.5824 31.5741 54.3305 31.4562 54.0649 31.4562H31.0678L30.0852 28.5178C29.9631 28.154 29.6224 27.908 29.2383 27.908H25.5799C25.0862 27.908 24.6866 28.3076 24.6866 28.8013C24.6866 29.295 25.0862 29.6946 25.5799 29.6946H28.5951L34.1675 46.3499ZM52.9894 33.2428L50.6197 45.9283H35.9101L35.8726 45.8163L35.7963 45.5578C35.7814 45.5066 35.7606 45.459 35.7374 45.4131L31.6651 33.2428H52.9894ZM49.7586 52.868C50.4238 52.868 50.9646 53.41 50.9646 54.0758C50.9646 54.7386 50.4238 55.2787 49.7586 55.2787C49.0952 55.2787 48.555 54.7392 48.555 54.0758C48.555 53.41 49.0946 52.868 49.7586 52.868ZM39.2862 53.8858C39.2862 54.5492 38.7496 55.0894 38.0897 55.0894C37.4233 55.0894 36.8814 54.5492 36.8814 53.8858C36.8814 53.2224 37.4233 52.6822 38.0897 52.6822C38.749 52.6816 39.2862 53.2218 39.2862 53.8858Z" fill="black"/>
<path d="M25.3804 41.5922H6.3823V14.2066H48.3561V27.0177C48.3561 27.5114 48.7563 27.911 49.2494 27.911C49.7425 27.911 50.1427 27.5114 50.1427 27.0177V3.58526C50.1427 3.09156 49.7425 2.69196 49.2494 2.69196H5.489C4.99531 2.69196 4.5957 3.09156 4.5957 3.58526V42.4855C4.5957 42.9786 4.99531 43.3788 5.489 43.3788H25.3804C25.8741 43.3788 26.2737 42.9786 26.2737 42.4855C26.2737 41.9924 25.8741 41.5922 25.3804 41.5922ZM48.3561 4.47856V12.42H6.3823V4.47856H48.3561Z" fill="black"/>
<path d="M17.4598 9.15232H21.0247C21.5184 9.15232 21.918 8.75272 21.918 8.25902C21.918 7.76533 21.5184 7.36572 21.0247 7.36572H17.4598C16.9661 7.36572 16.5665 7.76533 16.5665 8.25902C16.5665 8.75272 16.9661 9.15232 17.4598 9.15232Z" fill="black"/>
<path d="M10.1288 9.15232H13.6937C14.1874 9.15232 14.587 8.75272 14.587 8.25902C14.587 7.76533 14.1874 7.36572 13.6937 7.36572H10.1288C9.63514 7.36572 9.23553 7.76533 9.23553 8.25902C9.23553 8.75272 9.63514 9.15232 10.1288 9.15232Z" fill="black"/>
</svg>
