<?xml version="1.0" encoding="utf-8"?>
<!-- Generator: Adobe Illustrator 25.2.0, SVG Export Plug-In . SVG Version: 6.00 Build 0)  -->
<svg version="1.1" id="Слой_1" xmlns="http://www.w3.org/2000/svg" xmlns:xlink="http://www.w3.org/1999/xlink" x="0px" y="0px"
	 viewBox="0 0 60 61" style="enable-background:new 0 0 60 61;" xml:space="preserve">
<style type="text/css">
	.st0{fill:#007BFF;}
</style>
<path class="st0" d="M34.2,46.3l1.6,5.6c-0.4,0.5-0.7,1.2-0.7,1.9c0,1.6,1.3,3,3,3c1.5,0,2.7-1.1,2.9-2.5h5.8c0.2,1.5,1.4,2.7,3,2.7
	c1.7,0,3-1.3,3-3s-1.3-3-3-3c-1.1,0-2.1,0.6-2.6,1.5h-6.4c-0.5-1-1.5-1.7-2.7-1.7c-0.2,0-0.5,0-0.7,0.1l-1-3.3h14.9
	c0.4,0,0.8-0.3,0.9-0.7l2.7-14.5c0-0.3,0-0.5-0.2-0.7s-0.4-0.3-0.7-0.3H31l-1-2.9c-0.1-0.4-0.5-0.6-0.8-0.6h-3.7
	c-0.5,0-0.9,0.4-0.9,0.9s0.4,0.9,0.9,0.9h3L34.2,46.3z M53,33.2l-2.4,12.7H35.9v-0.1l-0.1-0.3c0-0.1,0-0.1-0.1-0.1l-4.1-12.2
	C31.6,33.2,53,33.2,53,33.2z M49.8,52.9c0.7,0,1.2,0.5,1.2,1.2s-0.5,1.2-1.2,1.2s-1.2-0.5-1.2-1.2S49.1,52.9,49.8,52.9z M39.3,53.9
	c0,0.7-0.5,1.2-1.2,1.2s-1.2-0.5-1.2-1.2s0.5-1.2,1.2-1.2C38.7,52.7,39.3,53.2,39.3,53.9z"/>
<path class="st0" d="M25.4,41.6h-19V14.2h42V27c0,0.5,0.4,0.9,0.9,0.9s0.9-0.4,0.9-0.9V3.6c0-0.5-0.4-0.9-0.9-0.9H5.5
	C5,2.7,4.6,3.1,4.6,3.6v38.9c0,0.5,0.4,0.9,0.9,0.9h19.9c0.5,0,0.9-0.4,0.9-0.9S25.9,41.6,25.4,41.6z M48.4,4.5v7.9h-42V4.5H48.4z"
	/>
<path class="st0" d="M17.5,9.2H21c0.5,0,0.9-0.4,0.9-0.9S21.5,7.4,21,7.4h-3.6c-0.5,0-0.9,0.4-0.9,0.9C16.6,8.8,17,9.2,17.5,9.2z"/>
<path class="st0" d="M10.1,9.2h3.6c0.5,0,0.9-0.4,0.9-0.9s-0.4-0.9-0.9-0.9h-3.6c-0.5,0-0.9,0.4-0.9,0.9C9.2,8.8,9.6,9.2,10.1,9.2z"
	/>
</svg>
