<?xml version="1.0" encoding="utf-8"?>
<!-- Generator: Adobe Illustrator 25.2.0, SVG Export Plug-In . SVG Version: 6.00 Build 0)  -->
<svg version="1.1" id="Слой_1" xmlns="http://www.w3.org/2000/svg" xmlns:xlink="http://www.w3.org/1999/xlink" x="0px" y="0px"
	 viewBox="0 0 24 24" style="enable-background:new 0 0 24 24;" xml:space="preserve">
<style type="text/css">
	.st0{fill:#6F7172;}
</style>
<path class="st0" d="M6,20c-0.8,0-1.5-0.3-2.1-0.9S3,17.8,3,17H1V6c0-0.5,0.2-1,0.6-1.4C2,4.2,2.5,4,3,4h14v4h3l3,4v5h-2
	c0,0.8-0.3,1.5-0.9,2.1C19.5,19.7,18.8,20,18,20c-0.8,0-1.5-0.3-2.1-0.9C15.3,18.5,15,17.8,15,17H9c0,0.8-0.3,1.5-0.9,2.1
	S6.8,20,6,20z M6,18c0.3,0,0.5-0.1,0.7-0.3C6.9,17.5,7,17.3,7,17s-0.1-0.5-0.3-0.7C6.5,16.1,6.3,16,6,16s-0.5,0.1-0.7,0.3
	C5.1,16.5,5,16.7,5,17s0.1,0.5,0.3,0.7C5.5,17.9,5.7,18,6,18z M3,15h0.8c0.3-0.3,0.6-0.5,1-0.7S5.6,14,6,14c0.5,0,0.9,0.1,1.2,0.3
	c0.4,0.2,0.7,0.4,1,0.7H15V6H3V15z M18,18c0.3,0,0.5-0.1,0.7-0.3c0.2-0.2,0.3-0.4,0.3-0.7s-0.1-0.5-0.3-0.7C18.5,16.1,18.3,16,18,16
	s-0.5,0.1-0.7,0.3C17.1,16.5,17,16.7,17,17s0.1,0.5,0.3,0.7C17.5,17.9,17.7,18,18,18z M17,13h4.2L19,10h-2V13z"/>
</svg>
