<svg width="88" height="60" viewBox="0 0 88 60" fill="none" xmlns="http://www.w3.org/2000/svg">
<path d="M73.6976 48.0822H75.71C76.4317 48.0822 76.9586 48.2313 77.2907 48.5297C77.5785 48.7935 77.7224 49.174 77.7224 49.6713V49.7427C77.7224 50.24 77.5763 50.6227 77.284 50.8908C76.9475 51.1978 76.4229 51.3513 75.71 51.3513H72.3295V46.5254H73.6976V48.0822ZM75.6037 50.2876C75.834 50.2876 76.0066 50.2378 76.1218 50.1384C76.2413 50.0389 76.3011 49.9027 76.3011 49.7297V49.6843C76.3011 49.5157 76.2413 49.3838 76.1218 49.2886C76.0066 49.1935 75.834 49.1459 75.6037 49.1459H73.6976V50.2876H75.6037ZM79.934 46.5254V51.3513H78.5658V46.5254H79.934Z" fill="#342F2C"/>
<path d="M68.1381 51.3513V47.6281H66.2253V46.5254H71.4123V47.6281H69.4996V51.3513H68.1381Z" fill="#342F2C"/>
<path d="M63.9428 51.3513V49.4119H61.1866V51.3513H59.8184V46.5254H61.1866V48.3157H63.9428V46.5254H65.3109V51.3513H63.9428Z" fill="#342F2C"/>
<path d="M54.1626 46.5254H58.6855V47.5762H55.5109V48.3611H58.5859V49.4508H55.5109V50.2876H58.7254V51.3513H54.1626V46.5254Z" fill="#342F2C"/>
<path d="M51.574 51.3513V49.4119H48.8178V51.3513H47.4496V46.5254H48.8178V48.3157H51.574V46.5254H52.9422V51.3513H51.574Z" fill="#342F2C"/>
<path d="M43.4803 46.4475C44.0293 46.4475 44.4986 46.5189 44.8883 46.6616C45.2779 46.8 45.5923 46.9924 45.8314 47.2389C46.0439 47.4594 46.1989 47.7081 46.2963 47.9848C46.3981 48.2616 46.449 48.5427 46.449 48.8281V49.0227C46.449 49.3038 46.3981 49.5848 46.2963 49.8659C46.1989 50.1427 46.0439 50.3913 45.8314 50.6119C45.5878 50.867 45.2713 51.0681 44.8816 51.2151C44.492 51.3578 44.0249 51.4292 43.4803 51.4292H43.1881C42.4752 51.4292 41.8775 51.2973 41.3948 51.0335C40.9742 50.8043 40.6687 50.4951 40.4783 50.1059C40.3056 49.7729 40.2193 49.4119 40.2193 49.0227V48.8281C40.2193 48.4389 40.3056 48.0778 40.4783 47.7448C40.6731 47.3556 40.9786 47.0508 41.3948 46.8302C41.873 46.5751 42.4708 46.4475 43.1881 46.4475H43.4803ZM45.0278 48.88C45.0278 48.5167 44.9193 48.2205 44.7023 47.9913C44.4234 47.6973 43.9673 47.5502 43.3342 47.5502C42.7143 47.5502 42.2605 47.6973 41.9727 47.9913C41.7513 48.2205 41.6406 48.5167 41.6406 48.88V48.9708C41.6406 49.1308 41.6671 49.2886 41.7203 49.4443C41.7734 49.6 41.8598 49.7383 41.9793 49.8594C42.2715 50.1665 42.7231 50.32 43.3342 50.32C43.9629 50.32 44.4189 50.1665 44.7023 49.8594C44.9193 49.6302 45.0278 49.334 45.0278 48.9708V48.88Z" fill="#342F2C"/>
<path d="M34.0953 51.3513V46.5254H39.2159V51.3513H37.8477V47.5892H35.4634V51.3513H34.0953Z" fill="#342F2C"/>
<path d="M26.1501 51.3513V46.5254H27.9699L29.5439 49.7946L31.1644 46.5254H32.8713V51.3513H31.5364V48.1924L30.0354 51.3513H28.9661L27.4651 48.1924V51.3513H26.1501Z" fill="#342F2C"/>
<path d="M22.1807 46.4475C22.7298 46.4475 23.1991 46.5189 23.5887 46.6616C23.9784 46.8 24.2927 46.9924 24.5318 47.2389C24.7444 47.4594 24.8993 47.7081 24.9967 47.9848C25.0986 48.2616 25.1495 48.5427 25.1495 48.8281V49.0227C25.1495 49.3038 25.0986 49.5848 24.9967 49.8659C24.8993 50.1427 24.7444 50.3913 24.5318 50.6119C24.2883 50.867 23.9717 51.0681 23.5821 51.2151C23.1925 51.3578 22.7254 51.4292 22.1807 51.4292H21.8885C21.1757 51.4292 20.5779 51.2973 20.0953 51.0335C19.6747 50.8043 19.3692 50.4951 19.1788 50.1059C19.0061 49.7729 18.9198 49.4119 18.9198 49.0227V48.8281C18.9198 48.4389 19.0061 48.0778 19.1788 47.7448C19.3736 47.3556 19.6791 47.0508 20.0953 46.8302C20.5735 46.5751 21.1712 46.4475 21.8885 46.4475H22.1807ZM23.7282 48.88C23.7282 48.5167 23.6197 48.2205 23.4028 47.9913C23.1238 47.6973 22.6678 47.5502 22.0346 47.5502C21.4148 47.5502 20.9609 47.6973 20.6731 47.9913C20.4517 48.2205 20.3411 48.5167 20.3411 48.88V48.9708C20.3411 49.1308 20.3676 49.2886 20.4207 49.4443C20.4739 49.6 20.5602 49.7383 20.6798 49.8594C20.972 50.1665 21.4236 50.32 22.0346 50.32C22.6634 50.32 23.1194 50.1665 23.4028 49.8594C23.6197 49.6302 23.7282 49.334 23.7282 48.9708V48.88Z" fill="#342F2C"/>
<path d="M17.0864 51.3513L14.7087 49.0811V51.3513H13.3406V46.5254H14.7087V48.5103L17.02 46.5254H18.7601L16.1566 48.7373L18.873 51.3513H17.0864Z" fill="#342F2C"/>
<path d="M54.7488 59.4595V56.2163L51.8597 59.4595H50.4915V54.6335H51.8597V57.8768L54.7488 54.6335H56.1169V59.4595H54.7488Z" fill="#342F2C"/>
<path d="M47.8996 59.4595V56.2163L45.0105 59.4595H43.6424V54.6335H45.0105V57.8768L47.8996 54.6335H49.2678V59.4595H47.8996Z" fill="#342F2C"/>
<path d="M38.7456 59.4595V54.6335H42.8634V55.6973H40.1138V59.4595H38.7456Z" fill="#342F2C"/>
<path d="M33.7641 57.9157V59.4595H32.396V54.6335H35.7433C36.4739 54.6335 37.0096 54.7827 37.3506 55.0811C37.6428 55.3449 37.7889 55.7298 37.7889 56.2357V56.3071C37.7889 56.8087 37.6406 57.1914 37.3439 57.4552C37.003 57.7622 36.4695 57.9157 35.7433 57.9157H33.7641ZM33.7641 56.839H35.6437C36.1263 56.839 36.3676 56.6552 36.3676 56.2876V56.2617C36.3676 56.0887 36.3078 55.9546 36.1883 55.8595C36.0688 55.76 35.8872 55.7103 35.6437 55.7103H33.7641V56.839Z" fill="#342F2C"/>
<path d="M26.7403 54.6335H31.2632V55.6844H28.0886V56.4692H31.1636V57.559H28.0886V58.3957H31.303V59.4595H26.7403V54.6335Z" fill="#342F2C"/>
<path d="M24.1518 59.4595V57.52H21.3956V59.4595H20.0275V54.6335H21.3956V56.4238H24.1518V54.6335H25.52V59.4595H24.1518Z" fill="#342F2C"/>
<path d="M19.0258 57.1308C19.0258 57.4032 18.9793 57.6778 18.8863 57.9546C18.7933 58.2314 18.6472 58.48 18.448 58.7005C18.2133 58.9557 17.9078 59.1589 17.5314 59.3103C17.1551 59.4573 16.7013 59.5308 16.1699 59.5308H15.8644C14.9036 59.5308 14.1819 59.3168 13.6993 58.8886C13.4956 58.7113 13.3451 58.5103 13.2477 58.2854C13.1503 58.0605 13.1016 57.8292 13.1016 57.5913V57.5719H14.5096C14.514 57.6324 14.5361 57.7103 14.576 57.8054C14.6158 57.8962 14.6822 57.9849 14.7752 58.0713C15.0365 58.3265 15.4482 58.4541 16.0105 58.4541C16.4489 58.4541 16.8053 58.3589 17.0798 58.1686C17.3145 58.0043 17.4761 57.7903 17.5647 57.5265H15.3132V56.5016H17.5647C17.4761 56.2422 17.3145 56.0368 17.0798 55.8854C16.8142 55.7168 16.46 55.6324 16.0172 55.6324C15.4637 55.6324 15.052 55.7557 14.7819 56.0022C14.6756 56.1016 14.6048 56.1968 14.5693 56.2876L14.5096 56.4822H13.1016V56.4692C13.1016 56.227 13.1503 55.9935 13.2477 55.7686C13.3451 55.5438 13.4978 55.3449 13.7059 55.1719C14.1886 54.7654 14.9081 54.5622 15.8644 54.5622H16.1699C16.7013 54.5622 17.1551 54.6357 17.5314 54.7827C17.9122 54.9254 18.2177 55.1222 18.448 55.373C18.6472 55.5935 18.7933 55.8422 18.8863 56.1189C18.9793 56.3914 19.0258 56.6638 19.0258 56.9362V57.1308Z" fill="#342F2C"/>
<path d="M88 22.0394C88 24.2622 87.6175 26.5027 86.8532 28.7609C86.0889 31.019 84.8879 33.0478 83.2497 34.8472C81.3203 36.9289 78.8087 38.5872 75.7149 39.8222C72.6205 41.0218 68.8896 41.6216 64.5212 41.6216H62.0096C54.1108 41.6216 48.1774 39.8751 44.2097 36.382C42.5353 34.9354 41.2976 33.2948 40.4968 31.46C39.696 29.6253 39.2956 27.7376 39.2956 25.797V25.6383H50.8711C50.9075 26.1322 51.0895 26.7673 51.4171 27.5436C51.7447 28.2845 52.2907 29.0078 53.0551 29.7135C55.2028 31.7952 58.5881 32.836 63.2111 32.836C66.8147 32.836 69.7447 32.0598 72.0017 30.5073C73.9311 29.1666 75.2599 27.4201 75.9877 25.2678H57.4778V16.9057H75.9877C75.2599 14.7886 73.9311 13.1127 72.0017 11.8778C69.8178 10.5017 66.9055 9.81373 63.2654 9.81373C58.7154 9.81373 55.3302 10.8193 53.1097 12.8304C52.2361 13.6419 51.6537 14.4182 51.3625 15.1591L50.8711 16.7469H39.2956V16.641C39.2956 14.6652 39.696 12.7598 40.4968 10.9251C41.2976 9.09038 42.5535 7.46735 44.2643 6.05606C48.232 2.7394 54.1472 1.08109 62.0096 1.08109H64.5212C68.8896 1.08109 72.6205 1.6809 75.7149 2.88054C78.8452 4.04488 81.3568 5.65027 83.2497 7.6967C84.8879 9.49616 86.0889 11.5249 86.8532 13.7831C87.6175 16.0059 88 18.2288 88 20.4516V22.0394Z" fill="#342F2C" fill-opacity="0.6"/>
<path fill-rule="evenodd" clip-rule="evenodd" d="M0 0L19.6478 18.9189H14.1132L24.6289 37.8378L4.98113 18.9189H10.5157L0 0Z" fill="#F5EA29"/>
<path fill-rule="evenodd" clip-rule="evenodd" d="M13.3937 12.8969L0 0L10.5157 18.9189H4.98113L13.3937 27.0194V41.6217H24.795V22.7028L44.6088 41.6217H59.4969L36.8604 19.8379L58.556 1.40546H44.0554L24.795 17.946V1.40546H13.3937V12.8969ZM13.3937 12.8969V27.0194L24.6289 37.8378L14.1132 18.9189H19.6478L13.3937 12.8969Z" fill="#342F2C"/>
</svg>
