<svg width="65" height="44" viewBox="0 0 65 44" fill="none" xmlns="http://www.w3.org/2000/svg">
<path d="M54.4357 35.2602H55.9222C56.4552 35.2602 56.8444 35.3696 57.0897 35.5884C57.3023 35.7819 57.4086 36.061 57.4086 36.4256V36.478C57.4086 36.8426 57.3006 37.1233 57.0848 37.3199C56.8362 37.5451 56.4487 37.6576 55.9222 37.6576H53.4252V34.1186H54.4357V35.2602ZM55.8437 36.8775C56.0137 36.8775 56.1413 36.8411 56.2263 36.7681C56.3146 36.6952 56.3588 36.5953 56.3588 36.4684V36.4352C56.3588 36.3115 56.3146 36.2148 56.2263 36.145C56.1413 36.0752 56.0137 36.0403 55.8437 36.0403H54.4357V36.8775H55.8437ZM59.0421 34.1186V37.6576H58.0316V34.1186H59.0421Z" fill="#342F2C"/>
<path d="M50.3292 37.6576V34.9273H48.9164V34.1186H52.7477V34.9273H51.3349V37.6576H50.3292Z" fill="#342F2C"/>
<path d="M47.2305 37.6576V36.2354H45.1946V37.6576H44.1841V34.1186H45.1946V35.4315H47.2305V34.1186H48.2411V37.6576H47.2305Z" fill="#342F2C"/>
<path d="M40.0065 34.1186H43.3473V34.8892H41.0024V35.4648H43.2737V36.2639H41.0024V36.8775H43.3767V37.6576H40.0065V34.1186Z" fill="#342F2C"/>
<path d="M38.0944 37.6576V36.2354H36.0585V37.6576H35.048V34.1186H36.0585V35.4315H38.0944V34.1186H39.105V37.6576H38.0944Z" fill="#342F2C"/>
<path d="M32.1161 34.0615C32.5216 34.0615 32.8683 34.1139 33.1561 34.2185C33.4439 34.32 33.6761 34.4611 33.8527 34.6419C34.0097 34.8036 34.1241 34.9859 34.1961 35.1889C34.2713 35.3918 34.3089 35.598 34.3089 35.8073V35.95C34.3089 36.1561 34.2713 36.3622 34.1961 36.5683C34.1241 36.7713 34.0097 36.9536 33.8527 37.1154C33.6728 37.3025 33.439 37.4499 33.1512 37.5578C32.8634 37.6624 32.5183 37.7147 32.1161 37.7147H31.9002C31.3737 37.7147 30.9322 37.618 30.5757 37.4246C30.265 37.2565 30.0393 37.0298 29.8987 36.7443C29.7712 36.5002 29.7074 36.2354 29.7074 35.95V35.8073C29.7074 35.5219 29.7712 35.2571 29.8987 35.0129C30.0426 34.7275 30.2683 34.5039 30.5757 34.3422C30.9289 34.1551 31.3704 34.0615 31.9002 34.0615H32.1161ZM33.2591 35.8453C33.2591 35.5789 33.179 35.3617 33.0187 35.1936C32.8127 34.978 32.4758 34.8702 32.0082 34.8702C31.5503 34.8702 31.2151 34.978 31.0025 35.1936C30.839 35.3617 30.7572 35.5789 30.7572 35.8453V35.9119C30.7572 36.0292 30.7768 36.145 30.8161 36.2592C30.8553 36.3733 30.9191 36.4748 31.0074 36.5636C31.2232 36.7887 31.5568 36.9013 32.0082 36.9013C32.4726 36.9013 32.8094 36.7887 33.0187 36.5636C33.179 36.3955 33.2591 36.1783 33.2591 35.9119V35.8453Z" fill="#342F2C"/>
<path d="M25.184 37.6576V34.1186H28.9662V37.6576H27.9557V34.8987H26.1945V37.6576H25.184Z" fill="#342F2C"/>
<path d="M19.3154 37.6576V34.1186H20.6596L21.8222 36.516L23.0192 34.1186H24.28V37.6576H23.2939V35.3411L22.1852 37.6576H21.3954L20.2867 35.3411V37.6576H19.3154Z" fill="#342F2C"/>
<path d="M16.3835 34.0615C16.7891 34.0615 17.1357 34.1139 17.4235 34.2185C17.7113 34.32 17.9435 34.4611 18.1201 34.6419C18.2771 34.8036 18.3916 34.9859 18.4635 35.1889C18.5387 35.3918 18.5764 35.598 18.5764 35.8073V35.95C18.5764 36.1561 18.5387 36.3622 18.4635 36.5683C18.3916 36.7713 18.2771 36.9536 18.1201 37.1154C17.9403 37.3025 17.7064 37.4499 17.4186 37.5578C17.1308 37.6624 16.7858 37.7147 16.3835 37.7147H16.1677C15.6411 37.7147 15.1996 37.618 14.8432 37.4246C14.5325 37.2565 14.3068 37.0298 14.1662 36.7443C14.0386 36.5002 13.9749 36.2354 13.9749 35.95V35.8073C13.9749 35.5219 14.0386 35.2571 14.1662 35.0129C14.3101 34.7275 14.5357 34.5039 14.8432 34.3422C15.1964 34.1551 15.6379 34.0615 16.1677 34.0615H16.3835ZM17.5265 35.8453C17.5265 35.5789 17.4464 35.3617 17.2862 35.1936C17.0801 34.978 16.7433 34.8702 16.2756 34.8702C15.8177 34.8702 15.4825 34.978 15.2699 35.1936C15.1064 35.3617 15.0247 35.5789 15.0247 35.8453V35.9119C15.0247 36.0292 15.0443 36.145 15.0835 36.2592C15.1228 36.3733 15.1866 36.4748 15.2749 36.5636C15.4907 36.7887 15.8243 36.9013 16.2756 36.9013C16.74 36.9013 17.0769 36.7887 17.2862 36.5636C17.4464 36.3955 17.5265 36.1783 17.5265 35.9119V35.8453Z" fill="#342F2C"/>
<path d="M12.6207 37.6576L10.8644 35.9928V37.6576H9.85388V34.1186H10.8644V35.5742L12.5716 34.1186H13.8569L11.9339 35.7407L13.9403 37.6576H12.6207Z" fill="#342F2C"/>
<path d="M40.4395 43.6036V41.2252L38.3055 43.6036H37.2949V40.0646H38.3055V42.443L40.4395 40.0646H41.45V43.6036H40.4395Z" fill="#342F2C"/>
<path d="M35.3804 43.6036V41.2252L33.2464 43.6036H32.2358V40.0646H33.2464V42.443L35.3804 40.0646H36.3909V43.6036H35.3804Z" fill="#342F2C"/>
<path d="M28.6189 43.6036V40.0646H31.6604V40.8447H29.6295V43.6036H28.6189Z" fill="#342F2C"/>
<path d="M24.9394 42.4715V43.6036H23.9288V40.0646H26.4013C26.9409 40.0646 27.3366 40.174 27.5885 40.3928C27.8043 40.5862 27.9122 40.8685 27.9122 41.2395V41.2918C27.9122 41.6597 27.8027 41.9403 27.5836 42.1338C27.3317 42.3589 26.9376 42.4715 26.4013 42.4715H24.9394ZM24.9394 41.6819H26.3277C26.6842 41.6819 26.8624 41.5471 26.8624 41.2776V41.2585C26.8624 41.1317 26.8183 41.0334 26.73 40.9636C26.6417 40.8907 26.5076 40.8542 26.3277 40.8542H24.9394V41.6819Z" fill="#342F2C"/>
<path d="M19.7513 40.0646H23.0921V40.8352H20.7472V41.4108H23.0185V42.2099H20.7472V42.8235H23.1215V43.6036H19.7513V40.0646Z" fill="#342F2C"/>
<path d="M17.8394 43.6036V42.1814H15.8035V43.6036H14.793V40.0646H15.8035V41.3775H17.8394V40.0646H18.8499V43.6036H17.8394Z" fill="#342F2C"/>
<path d="M14.0531 41.8959C14.0531 42.0957 14.0188 42.2971 13.9501 42.5C13.8814 42.703 13.7735 42.8853 13.6263 43.0471C13.453 43.2342 13.2273 43.3832 12.9493 43.4942C12.6713 43.602 12.3361 43.6559 11.9437 43.6559H11.718C11.0083 43.6559 10.4752 43.499 10.1188 43.185C9.96832 43.055 9.85712 42.9075 9.78517 42.7426C9.71322 42.5777 9.67725 42.4081 9.67725 42.2337V42.2194H10.7172C10.7205 42.2638 10.7369 42.3209 10.7663 42.3906C10.7957 42.4572 10.8448 42.5222 10.9135 42.5857C11.1064 42.7728 11.4106 42.8663 11.8259 42.8663C12.1497 42.8663 12.413 42.7966 12.6157 42.657C12.7891 42.5365 12.9084 42.3795 12.9739 42.1861H11.3108V41.4345H12.9739C12.9084 41.2443 12.7891 41.0936 12.6157 40.9826C12.4195 40.859 12.1579 40.7971 11.8308 40.7971C11.422 40.7971 11.1179 40.8875 10.9184 41.0683C10.8399 41.1412 10.7876 41.211 10.7614 41.2776L10.7172 41.4203H9.67725V41.4108C9.67725 41.2332 9.71322 41.0619 9.78517 40.897C9.85712 40.7321 9.96995 40.5862 10.1237 40.4594C10.4801 40.1613 11.0116 40.0123 11.718 40.0123H11.9437C12.3361 40.0123 12.6713 40.0662 12.9493 40.174C13.2306 40.2786 13.4562 40.4229 13.6263 40.6069C13.7735 40.7686 13.8814 40.9509 13.9501 41.1539C14.0188 41.3537 14.0531 41.5535 14.0531 41.7532V41.8959Z" fill="#342F2C"/>
<path d="M65 16.1622C65 17.7923 64.7175 19.4353 64.1529 21.0913C63.5884 22.7472 62.7013 24.235 61.4912 25.5546C60.0661 27.0812 58.211 28.2973 55.9257 29.2029C53.6401 30.0826 50.8844 30.5225 47.6577 30.5225H45.8025C39.9682 30.5225 35.5856 29.2417 32.6549 26.6802C31.4181 25.6193 30.5039 24.4161 29.9124 23.0707C29.3209 21.7252 29.0251 20.3409 29.0251 18.9178V18.8014H37.5752C37.6021 19.1636 37.7365 19.6294 37.9785 20.1986C38.2205 20.742 38.6238 21.2724 39.1884 21.7899C40.7748 23.3165 43.2753 24.0798 46.69 24.0798C49.3517 24.0798 51.516 23.5105 53.1831 22.372C54.6082 21.3888 55.5897 20.1081 56.1273 18.5297H42.4552V12.3975H56.1273C55.5897 10.845 54.6082 9.61597 53.1831 8.71036C51.5699 7.70126 49.4188 7.19673 46.7301 7.19673C43.3693 7.19673 40.8689 7.93414 39.2288 9.40897C38.5835 10.0041 38.1533 10.5733 37.9382 11.1167L37.5752 12.281H29.0251V12.2034C29.0251 10.7545 29.3209 9.3572 29.9124 8.01176C30.5039 6.66627 31.4315 5.47605 32.6952 4.4411C35.6259 2.00889 39.9951 0.792786 45.8025 0.792786H47.6577C50.8844 0.792786 53.6401 1.23265 55.9257 2.11238C58.2379 2.96624 60.0931 4.14352 61.4912 5.64424C62.7013 6.96384 63.5884 8.4516 64.1529 10.1076C64.7175 11.7377 65 13.3677 65 14.9978V16.1622Z" fill="#342F2C" fill-opacity="0.6"/>
<path fill-rule="evenodd" clip-rule="evenodd" d="M0 0L14.5126 13.8739H10.4245L18.1918 27.7477L3.67924 13.8739H7.76729L0 0Z" fill="#F5EA29"/>
<path fill-rule="evenodd" clip-rule="evenodd" d="M9.89308 9.4577L0 0L7.7673 13.8739H3.67925L9.89308 19.8142V30.5226H18.3145V16.6487L32.9497 30.5226H43.9466L27.2264 14.5478L43.2516 1.03067H32.5409L18.3145 13.1604V1.03067H9.89308V9.4577ZM9.89308 9.4577V19.8142L18.1918 27.7478L10.4245 13.8739H14.5126L9.89308 9.4577Z" fill="#342F2C"/>
</svg>
