<svg width="56" height="33" viewBox="0 0 56 33" fill="none" xmlns="http://www.w3.org/2000/svg">
<path d="M41 1H15C6.71573 1 0 7.71573 0 16C0 24.2843 6.71573 31 15 31H41C49.2843 31 56 24.2843 56 16C56 7.71573 49.2843 1 41 1Z" fill="#6F7172"/>
<path d="M38.2143 6H17.7857C11.2766 6 6 10.4772 6 16C6 21.5228 11.2766 26 17.7857 26H38.2143C44.7234 26 50 21.5228 50 16C50 10.4772 44.7234 6 38.2143 6Z" fill="#9A9A9A"/>
<g filter="url(#filter0_dd_241_34)">
<path d="M39 27C45.0751 27 50 22.0751 50 16C50 9.92487 45.0751 5 39 5C32.9249 5 28 9.92487 28 16C28 22.0751 32.9249 27 39 27Z" fill="#FACC15"/>
<path d="M39 5.5C44.799 5.5 49.5 10.201 49.5 16C49.5 21.799 44.799 26.5 39 26.5C33.201 26.5 28.5 21.799 28.5 16C28.5 10.201 33.201 5.5 39 5.5Z" stroke="white"/>
</g>
<defs>
<filter id="filter0_dd_241_34" x="23" y="0" width="32" height="35" filterUnits="userSpaceOnUse" color-interpolation-filters="sRGB">
<feFlood flood-opacity="0" result="BackgroundImageFix"/>
<feColorMatrix in="SourceAlpha" type="matrix" values="0 0 0 0 0 0 0 0 0 0 0 0 0 0 0 0 0 0 127 0" result="hardAlpha"/>
<feOffset dy="4"/>
<feGaussianBlur stdDeviation="2"/>
<feComposite in2="hardAlpha" operator="out"/>
<feColorMatrix type="matrix" values="0 0 0 0 0 0 0 0 0 0 0 0 0 0 0 0 0 0 0.25 0"/>
<feBlend mode="normal" in2="BackgroundImageFix" result="effect1_dropShadow_241_34"/>
<feColorMatrix in="SourceAlpha" type="matrix" values="0 0 0 0 0 0 0 0 0 0 0 0 0 0 0 0 0 0 127 0" result="hardAlpha"/>
<feOffset/>
<feGaussianBlur stdDeviation="2.5"/>
<feComposite in2="hardAlpha" operator="out"/>
<feColorMatrix type="matrix" values="0 0 0 0 1 0 0 0 0 1 0 0 0 0 1 0 0 0 1 0"/>
<feBlend mode="normal" in2="effect1_dropShadow_241_34" result="effect2_dropShadow_241_34"/>
<feBlend mode="normal" in="SourceGraphic" in2="effect2_dropShadow_241_34" result="shape"/>
</filter>
</defs>
</svg>
