<?xml version="1.0" encoding="utf-8"?>
<!-- Generator: Adobe Illustrator 25.2.0, SVG Export Plug-In . SVG Version: 6.00 Build 0)  -->
<svg version="1.1" id="Слой_1" xmlns="http://www.w3.org/2000/svg" xmlns:xlink="http://www.w3.org/1999/xlink" x="0px" y="0px"
	 viewBox="0 0 60 49" style="enable-background:new 0 0 60 49;" xml:space="preserve">
<style type="text/css">
	.st0{fill:#218838;}
</style>
<path class="st0" d="M53.8,8.7H39.7v-3C39.7,2.6,37.6,0,35,0H24.9c-2.6,0-4.7,2.6-4.7,5.7v3.1h-14C2.8,8.7,0,11.5,0,14.9V42
	c0,3.4,2.8,6.2,6.2,6.2h47.7c3.4,0,6.2-2.8,6.2-6.2V14.9C60,11.5,57.2,8.7,53.8,8.7z M22.4,5.7c0-1.9,1.2-3.5,2.5-3.5H35
	c1.4,0,2.5,1.6,2.5,3.5v3.1H22.4V5.7z M57.9,42c0,2.2-1.8,4-4,4H6.2c-2.2,0-4-1.8-4-4V14.9c0-2.2,1.8-4,4-4h47.7c2.2,0,4,1.8,4,4V42
	z"/>
<path class="st0" d="M17.8,29.9c-0.6,0-1.1,0.5-1.1,1.1v9.1c0,0.6,0.5,1.1,1.1,1.1s1.1-0.5,1.1-1.1V31
	C18.9,30.4,18.4,29.9,17.8,29.9z"/>
<path class="st0" d="M25.2,26.5c-0.6,0-1.1,0.5-1.1,1.1v12.6c0,0.6,0.5,1.1,1.1,1.1s1.1-0.5,1.1-1.1V27.5
	C26.3,26.9,25.8,26.5,25.2,26.5z"/>
<path class="st0" d="M33.2,23.2c-0.6,0-1.1,0.5-1.1,1.1v15.8c0,0.6,0.5,1.1,1.1,1.1s1.1-0.5,1.1-1.1V24.3
	C34.2,23.7,33.8,23.2,33.2,23.2z"/>
<path class="st0" d="M41.5,19.5c-0.6,0-1.1,0.5-1.1,1.1v19.5c0,0.6,0.5,1.1,1.1,1.1s1.1-0.5,1.1-1.1V20.6
	C42.6,20,42.1,19.5,41.5,19.5z"/>
</svg>
