<svg width="60" height="34" viewBox="0 0 60 34" fill="none" xmlns="http://www.w3.org/2000/svg">
<g clip-path="url(#clip0_228_30)">
<path d="M43 2H17C8.71573 2 2 8.71573 2 17C2 25.2843 8.71573 32 17 32H43C51.2843 32 58 25.2843 58 17C58 8.71573 51.2843 2 43 2Z" fill="#6F7172"/>
<path d="M40.2143 7H19.7857C13.2766 7 8 11.4772 8 17C8 22.5228 13.2766 27 19.7857 27H40.2143C46.7234 27 52 22.5228 52 17C52 11.4772 46.7234 7 40.2143 7Z" fill="#9A9A9A"/>
<g filter="url(#filter0_dd_228_30)">
<path d="M41 28C47.0751 28 52 23.0751 52 17C52 10.9249 47.0751 6 41 6C34.9249 6 30 10.9249 30 17C30 23.0751 34.9249 28 41 28Z" fill="#FACC15"/>
<path d="M41 6.5C46.799 6.5 51.5 11.201 51.5 17C51.5 22.799 46.799 27.5 41 27.5C35.201 27.5 30.5 22.799 30.5 17C30.5 11.201 35.201 6.5 41 6.5Z" stroke="white"/>
</g>
</g>
<defs>
<filter id="filter0_dd_228_30" x="25" y="1" width="32" height="35" filterUnits="userSpaceOnUse" color-interpolation-filters="sRGB">
<feFlood flood-opacity="0" result="BackgroundImageFix"/>
<feColorMatrix in="SourceAlpha" type="matrix" values="0 0 0 0 0 0 0 0 0 0 0 0 0 0 0 0 0 0 127 0" result="hardAlpha"/>
<feOffset dy="4"/>
<feGaussianBlur stdDeviation="2"/>
<feComposite in2="hardAlpha" operator="out"/>
<feColorMatrix type="matrix" values="0 0 0 0 0 0 0 0 0 0 0 0 0 0 0 0 0 0 0.25 0"/>
<feBlend mode="normal" in2="BackgroundImageFix" result="effect1_dropShadow_228_30"/>
<feColorMatrix in="SourceAlpha" type="matrix" values="0 0 0 0 0 0 0 0 0 0 0 0 0 0 0 0 0 0 127 0" result="hardAlpha"/>
<feOffset/>
<feGaussianBlur stdDeviation="2.5"/>
<feComposite in2="hardAlpha" operator="out"/>
<feColorMatrix type="matrix" values="0 0 0 0 1 0 0 0 0 1 0 0 0 0 1 0 0 0 1 0"/>
<feBlend mode="normal" in2="effect1_dropShadow_228_30" result="effect2_dropShadow_228_30"/>
<feBlend mode="normal" in="SourceGraphic" in2="effect2_dropShadow_228_30" result="shape"/>
</filter>
<clipPath id="clip0_228_30">
<rect width="60" height="34" fill="white"/>
</clipPath>
</defs>
</svg>
