<svg width="60" height="34" viewBox="0 0 60 34" fill="none" xmlns="http://www.w3.org/2000/svg">
<path d="M43 2H17C8.71573 2 2 8.71573 2 17C2 25.2843 8.71573 32 17 32H43C51.2843 32 58 25.2843 58 17C58 8.71573 51.2843 2 43 2Z" fill="#6F7172"/>
<path d="M40.2143 7H19.7857C13.2766 7 8 11.4772 8 17C8 22.5228 13.2766 27 19.7857 27H40.2143C46.7234 27 52 22.5228 52 17C52 11.4772 46.7234 7 40.2143 7Z" fill="#838282"/>
<path d="M19 6.5C24.799 6.5 29.5 11.201 29.5 17C29.5 22.799 24.799 27.5 19 27.5C13.201 27.5 8.5 22.799 8.5 17C8.5 11.201 13.201 6.5 19 6.5Z" fill="#7E7D7D" stroke="#A9A6A6"/>
</svg>
