<svg width="60" height="49" viewBox="0 0 60 49" fill="none" xmlns="http://www.w3.org/2000/svg">
<path d="M53.846 8.74863H39.7391V5.69133C39.7391 2.55311 37.64 0 35.0611 0H24.941C22.3614 0 20.2631 2.55311 20.2631 5.69133V8.74863H6.15398C2.7608 8.74863 0 11.5087 0 14.9026V42.0494C0 45.4426 2.76009 48.2034 6.15398 48.2034H53.846C57.2392 48.2034 60 45.4433 60 42.0494V14.9026C60 11.5087 57.2392 8.74863 53.846 8.74863ZM22.4116 5.69133C22.4116 3.77059 23.5696 2.14848 24.941 2.14848H35.0611C36.4326 2.14848 37.5906 3.77059 37.5906 5.69133V8.74863H22.4116V5.69133ZM57.8515 42.0494C57.8515 44.2581 56.0547 46.0549 53.846 46.0549H6.15398C3.94533 46.0549 2.14848 44.2581 2.14848 42.0494V14.9026C2.14848 12.694 3.94533 10.8971 6.15398 10.8971H53.846C56.0547 10.8971 57.8515 12.694 57.8515 14.9026V42.0494Z" fill="black"/>
<path d="M17.8038 29.9219C17.2101 29.9219 16.7295 30.4032 16.7295 30.9962V40.0986C16.7295 40.6916 17.2101 41.1728 17.8038 41.1728C18.3975 41.1728 18.878 40.6916 18.878 40.0986V30.9962C18.878 30.4032 18.3975 29.9219 17.8038 29.9219Z" fill="black"/>
<path d="M25.2182 26.4514C24.6245 26.4514 24.144 26.9327 24.144 27.5257V40.0993C24.144 40.6923 24.6245 41.1735 25.2182 41.1735C25.8119 41.1735 26.2925 40.6923 26.2925 40.0993V27.5257C26.2925 26.9327 25.8119 26.4514 25.2182 26.4514Z" fill="black"/>
<path d="M33.1698 23.2022C32.5768 23.2022 32.0955 23.6828 32.0955 24.2765V40.0986C32.0955 40.6916 32.5768 41.1728 33.1698 41.1728C33.7627 41.1728 34.244 40.6916 34.244 40.0986V24.2765C34.244 23.6828 33.7627 23.2022 33.1698 23.2022Z" fill="black"/>
<path d="M41.4815 19.4904C40.8885 19.4904 40.4073 19.9709 40.4073 20.5646V40.0986C40.4073 40.6916 40.8885 41.1729 41.4815 41.1729C42.0745 41.1729 42.5557 40.6916 42.5557 40.0986V20.5646C42.5557 19.9709 42.0752 19.4904 41.4815 19.4904Z" fill="black"/>
</svg>
