<svg width="56" height="30" viewBox="0 0 56 30" fill="none" xmlns="http://www.w3.org/2000/svg">
<path d="M41 0H15C6.71573 0 0 6.71573 0 15C0 23.2843 6.71573 30 15 30H41C49.2843 30 56 23.2843 56 15C56 6.71573 49.2843 0 41 0Z" fill="#6F7172"/>
<path d="M38.2143 5H17.7857C11.2766 5 6 9.47715 6 15C6 20.5228 11.2766 25 17.7857 25H38.2143C44.7234 25 50 20.5228 50 15C50 9.47715 44.7234 5 38.2143 5Z" fill="#9A9A9A"/>
<path d="M17 4.5C22.799 4.5 27.5 9.20101 27.5 15C27.5 20.799 22.799 25.5 17 25.5C11.201 25.5 6.5 20.799 6.5 15C6.5 9.20101 11.201 4.5 17 4.5Z" fill="#9A9A9A" stroke="#C8C8C8"/>
</svg>
