<svg width="60" height="34" viewBox="0 0 60 34" fill="none" xmlns="http://www.w3.org/2000/svg">
<path d="M43 2H17C8.71573 2 2 8.71573 2 17C2 25.2843 8.71573 32 17 32H43C51.2843 32 58 25.2843 58 17C58 8.71573 51.2843 2 43 2Z" fill="#6F7172"/>
<rect x="8" y="6" width="44" height="22" rx="11" fill="#7F7E7E"/>
<g filter="url(#filter0_d_194_38)">
<path d="M41 6.5C46.799 6.5 51.5 11.201 51.5 17C51.5 22.799 46.799 27.5 41 27.5C35.201 27.5 30.5 22.799 30.5 17C30.5 11.201 35.201 6.5 41 6.5Z" fill="#F5EA29"/>
<path d="M41 6.5C46.799 6.5 51.5 11.201 51.5 17C51.5 22.799 46.799 27.5 41 27.5C35.201 27.5 30.5 22.799 30.5 17C30.5 11.201 35.201 6.5 41 6.5Z" stroke="#C5BDB8"/>
</g>
<defs>
<filter id="filter0_d_194_38" x="29" y="5" width="24" height="24" filterUnits="userSpaceOnUse" color-interpolation-filters="sRGB">
<feFlood flood-opacity="0" result="BackgroundImageFix"/>
<feColorMatrix in="SourceAlpha" type="matrix" values="0 0 0 0 0 0 0 0 0 0 0 0 0 0 0 0 0 0 127 0" result="hardAlpha"/>
<feOffset/>
<feGaussianBlur stdDeviation="0.5"/>
<feComposite in2="hardAlpha" operator="out"/>
<feColorMatrix type="matrix" values="0 0 0 0 0.960784 0 0 0 0 0.917647 0 0 0 0 0.160784 0 0 0 1 0"/>
<feBlend mode="normal" in2="BackgroundImageFix" result="effect1_dropShadow_194_38"/>
<feBlend mode="normal" in="SourceGraphic" in2="effect1_dropShadow_194_38" result="shape"/>
</filter>
</defs>
</svg>
