<svg width="61" height="66" viewBox="0 0 61 66" fill="none" xmlns="http://www.w3.org/2000/svg">
<path d="M60.5 19.0439V19.041C60.5 19.0382 60.4993 19.0361 60.4993 19.0332C60.4986 18.9563 60.4879 18.8795 60.4708 18.804C60.4651 18.7799 60.4573 18.7571 60.4502 18.7336C60.4345 18.6816 60.4146 18.6304 60.3904 18.5799C60.3776 18.5535 60.3641 18.5272 60.3491 18.5023C60.3392 18.4852 60.3321 18.466 60.3214 18.4496C60.3022 18.4212 60.2787 18.3977 60.2573 18.3714C60.2402 18.35 60.2246 18.3287 60.2061 18.3087C60.1513 18.2504 60.0922 18.1984 60.0275 18.155C60.0267 18.1543 60.026 18.1536 60.0253 18.1529L60.0246 18.1522C60.0225 18.1507 60.0203 18.1493 60.0189 18.1479L34.1356 0.921971C33.7769 0.683562 33.3107 0.683562 32.9521 0.921971L23.8413 6.99606L23.8406 6.99677L15.4692 12.577C15.3546 12.6275 15.2472 12.6965 15.1547 12.7869L0.983222 22.235C0.914902 22.2798 0.852275 22.3353 0.793919 22.3965C0.775415 22.4165 0.759759 22.4378 0.742679 22.4592C0.721329 22.4855 0.697844 22.5083 0.678629 22.5375C0.667242 22.5538 0.660837 22.5723 0.650873 22.5894C0.635928 22.615 0.621695 22.6414 0.608885 22.6691C0.5854 22.7182 0.566185 22.7687 0.550528 22.82C0.5427 22.8449 0.534872 22.8684 0.529178 22.8933C0.51281 22.9659 0.502847 23.0392 0.502135 23.1132C0.502135 23.1189 0.5 23.1239 0.5 23.1289V23.1345V47.1619C0.5 47.5191 0.678629 47.8529 0.976106 48.0507L26.8644 65.2816C26.868 65.2838 26.8716 65.2845 26.8751 65.2866C26.9498 65.335 27.0317 65.3713 27.1171 65.4005C27.1384 65.4076 27.1591 65.4147 27.1804 65.4204C27.2687 65.4439 27.3598 65.4603 27.4551 65.4603C27.5505 65.4603 27.6416 65.4439 27.7298 65.4197C27.7512 65.414 27.7725 65.4069 27.7932 65.3998C27.8807 65.3706 27.9647 65.3336 28.0401 65.2838C28.0423 65.2824 28.0444 65.2817 28.0465 65.2809L28.0508 65.2781C28.0515 65.2781 28.0515 65.2774 28.0522 65.2774L60.0232 43.9629C60.32 43.7651 60.4986 43.432 60.4986 43.0748V19.0489C60.5 19.0474 60.5 19.0453 60.5 19.0439ZM33.5449 3.09256L57.5067 19.0417L49.9282 24.0946L26.3229 7.9077L33.5449 3.09256ZM27.4558 39.0766L3.49256 23.1274L15.9076 14.8507L39.5136 31.0376L27.4558 39.0766ZM24.4085 9.18372L48.0138 25.3706L41.4273 29.7616L17.8213 13.5747L24.4085 9.18372ZM42.4642 31.6361L48.8016 27.411L48.576 37.4697L42.4642 41.4792V31.6361ZM2.635 25.1208L26.3883 40.9312V62.3994L2.635 46.5897V25.1208ZM28.5233 62.398V40.9305L40.3292 33.0595V43.4562C40.3292 43.8484 40.5448 44.2092 40.8893 44.3956C41.0487 44.481 41.2231 44.5237 41.3967 44.5237C41.6009 44.5237 41.8052 44.4654 41.9824 44.3487L50.2164 38.9464C50.5096 38.7535 50.6897 38.429 50.6982 38.0774L50.9693 25.9656L58.365 21.0351V42.5033L28.5233 62.398Z" fill="black"/>
<path d="M24.4355 46.2345C24.7807 46.2345 25.1194 46.068 25.3251 45.7584C25.6517 45.2681 25.5187 44.6048 25.0283 44.2781L12.7976 36.1374C12.3065 35.8107 11.6433 35.9431 11.3173 36.4348C10.9907 36.9252 11.1238 37.5885 11.6141 37.9151L23.8455 46.0559C24.027 46.1769 24.2327 46.2345 24.4355 46.2345Z" fill="black"/>
<path d="M25.0284 49.847L18.0242 45.1848C17.5331 44.8582 16.8698 44.9913 16.5439 45.4823C16.2172 45.9727 16.3503 46.6359 16.8407 46.9626L23.8449 51.6247C24.0264 51.7457 24.232 51.8034 24.4356 51.8034C24.7807 51.8034 25.1195 51.6368 25.3252 51.3273C25.6518 50.8362 25.5187 50.1736 25.0284 49.847Z" fill="black"/>
</svg>
