<svg width="28" height="30" viewBox="0 0 28 30" fill="none" xmlns="http://www.w3.org/2000/svg">
<path d="M2.31015 10.5H25.9889L23.1013 28.5H4.62028L2.31015 10.5Z" fill="#D5DAE0"/>
<rect y="8.94855" width="28" height="2.39221" rx="1.19611" fill="#342F2C"/>
<rect x="5.64911" y="27.6078" width="16.0263" height="2.39221" rx="1.19611" fill="#342F2C"/>
<rect width="10.9143" height="2.00281" rx="1.0014" transform="matrix(0.419918 -0.907562 0.788389 0.615177 5.13971 9.95822)" fill="#342F2C"/>
<rect width="10.704" height="2.00613" rx="1.00307" transform="matrix(0.424977 0.905204 -0.784012 0.620745 18.2023 0)" fill="#342F2C"/>
<rect x="7.85962" y="14.929" width="1.84211" height="9.09042" rx="0.921053" fill="#342F2C"/>
<rect width="1.85854" height="18.0086" rx="0.929272" transform="matrix(0.978127 -0.208007 0.125108 0.992143 1.29324 10.2038)" fill="#342F2C"/>
<rect width="1.85651" height="18.0206" rx="0.928257" transform="matrix(0.980822 0.194907 -0.117023 0.993129 24.8281 9.82565)" fill="#342F2C"/>
<rect x="13.0789" y="14.929" width="1.84211" height="9.09042" rx="0.921053" fill="#342F2C"/>
<rect x="18.2983" y="14.929" width="1.84211" height="9.09042" rx="0.921053" fill="#342F2C"/>
<path d="M5.18855 26.2123L5.46487 26.8103L5.89469 27.2888L6.44732 27.5679L7.24557 27.6077V30H6.26311H5.83329L5.46487 29.8405L4.75873 29.362L3.96048 28.3653L3.65346 27.7273L3.40785 27.0097L5.18855 26.2123Z" fill="#342F2C"/>
<path d="M20.6316 27.6078H21.5833L22.0746 27.4084L22.3816 27.0496L22.6886 26.6908L22.9342 26.2522L24.4079 27.6078L24.1316 28.2058L23.7325 28.8039L23.364 29.2425L22.9342 29.5216L22.4737 29.8405L21.9825 30H20.6316V27.6078Z" fill="#342F2C"/>
</svg>
