<svg width="24" height="32" viewBox="0 0 38 50" fill="none" xmlns="http://www.w3.org/2000/svg">
<g clip-path="url(#clip0_49_84)">
<path d="M23.375 31.25C31.6875 31.25 37.5 25.4436 37.5 17.0968C37.5 8.75 31.6875 3.125 23.375 3.125H7.42188C6.77471 3.125 6.25 3.64971 6.25 4.29688V24.4758H1.17188C0.524707 24.4758 0 25.0005 0 25.6477V30.0781C0 30.7253 0.524707 31.25 1.17188 31.25H6.25V34.375H1.17188C0.524707 34.375 0 34.8997 0 35.5469V39.4531C0 40.1003 0.524707 40.625 1.17188 40.625H6.25V45.7031C6.25 46.3503 6.77471 46.875 7.42188 46.875H13.1406C13.7878 46.875 14.3125 46.3503 14.3125 45.7031V40.625H30.0781C30.7253 40.625 31.25 40.1003 31.25 39.4531V35.5469C31.25 34.8997 30.7253 34.375 30.0781 34.375H14.3125V31.25H23.375ZM14.3125 9.83867H22C26.5625 9.83867 29.3125 12.6814 29.3125 17.0968C29.3125 21.5726 26.5625 24.4758 21.875 24.4758H14.3125V9.83867Z" fill="#1D252C"/>
</g>
<defs>
<clipPath id="clip0_49_84">
<rect width="37.5" height="50" fill="white"/>
</clipPath>
</defs>
</svg>
