<svg width="16" height="16" viewBox="0 0 16 16" fill="none" xmlns="http://www.w3.org/2000/svg">
<path d="M15.8493 0.999954C15.8493 0.447669 15.4016 -4.57987e-05 14.8493 -4.60516e-05L5.84929 -4.52508e-05C5.297 -4.5588e-05 4.84929 0.44767 4.84929 0.999954C4.84929 1.55224 5.297 1.99995 5.84929 1.99995L13.8493 1.99995L13.8493 9.99995C13.8493 10.5522 14.297 11 14.8493 11C15.4016 11 15.8493 10.5522 15.8493 9.99995L15.8493 0.999954ZM0.707153 15.1421L1.41426 15.8492L15.5564 1.70706L14.8493 0.999954L14.1422 0.292848L4.65512e-05 14.435L0.707153 15.1421Z" fill="#1D252C"/>
</svg>
