<svg width="88" height="88" viewBox="0 0 88 88" fill="none" xmlns="http://www.w3.org/2000/svg">
<rect x="38.605" y="12.2818" width="10.2947" height="29.681" rx="1" fill="#1D252C"/>
<mask id="path-2-inside-1_4_59" fill="white">
<path d="M42.0838 75.2274C42.0635 75.7795 41.599 76.2121 41.0479 76.1743C34.5241 75.7265 28.2818 73.288 23.1602 69.1723C17.7777 64.8468 13.9173 58.8973 12.1471 52.1992C10.3769 45.5011 10.7904 38.4083 13.3268 31.9643C15.7398 25.8338 19.9529 20.5986 25.3928 16.9501C25.8533 16.6412 26.4739 16.7867 26.7656 17.2581L31.4377 24.8095C31.7271 25.2774 31.5827 25.8892 31.1306 26.2027C27.6532 28.6132 24.9582 32.0129 23.3979 35.977C21.7156 40.2512 21.4413 44.9559 22.6155 49.3987C23.7896 53.8415 26.3502 57.7878 29.9204 60.6568C33.2297 63.3163 37.2446 64.9199 41.4502 65.2756C42.0004 65.3221 42.4315 65.7834 42.4111 66.3352L42.0838 75.2274Z"/>
</mask>
<path d="M42.0838 75.2274C42.0635 75.7795 41.599 76.2121 41.0479 76.1743C34.5241 75.7265 28.2818 73.288 23.1602 69.1723C17.7777 64.8468 13.9173 58.8973 12.1471 52.1992C10.3769 45.5011 10.7904 38.4083 13.3268 31.9643C15.7398 25.8338 19.9529 20.5986 25.3928 16.9501C25.8533 16.6412 26.4739 16.7867 26.7656 17.2581L31.4377 24.8095C31.7271 25.2774 31.5827 25.8892 31.1306 26.2027C27.6532 28.6132 24.9582 32.0129 23.3979 35.977C21.7156 40.2512 21.4413 44.9559 22.6155 49.3987C23.7896 53.8415 26.3502 57.7878 29.9204 60.6568C33.2297 63.3163 37.2446 64.9199 41.4502 65.2756C42.0004 65.3221 42.4315 65.7834 42.4111 66.3352L42.0838 75.2274Z" fill="#1D252C" stroke="#1D252C" stroke-width="100" mask="url(#path-2-inside-1_4_59)"/>
<mask id="path-3-inside-2_4_59" fill="white">
<path d="M75.3554 42.0224C75.9065 41.9826 76.3226 41.5031 76.265 40.9535C75.8956 37.4259 74.9386 33.9838 73.4331 30.7684C73.1997 30.2699 72.5993 30.073 72.1072 30.3195L64.8981 33.9308C64.4027 34.179 64.2057 34.7818 64.4333 35.2871C65.3475 37.3166 65.9465 39.4725 66.2097 41.6809C66.275 42.229 66.7512 42.6432 67.3018 42.6035L75.3554 42.0224Z"/>
</mask>
<path d="M75.3554 42.0224C75.9065 41.9826 76.3226 41.5031 76.265 40.9535C75.8956 37.4259 74.9386 33.9838 73.4331 30.7684C73.1997 30.2699 72.5993 30.073 72.1072 30.3195L64.8981 33.9308C64.4027 34.179 64.2057 34.7818 64.4333 35.2871C65.3475 37.3166 65.9465 39.4725 66.2097 41.6809C66.275 42.229 66.7512 42.6432 67.3018 42.6035L75.3554 42.0224Z" fill="#F3DE09" stroke="#F3DE09" stroke-width="100" mask="url(#path-3-inside-2_4_59)"/>
<mask id="path-4-inside-3_4_59" fill="white">
<path d="M71.9876 57.8948C72.4844 58.1369 73.0868 57.9321 73.3153 57.4295C74.7847 54.1975 75.7032 50.7449 76.0331 47.2133C76.0843 46.6654 75.6638 46.1933 75.1123 46.1595L67.0568 45.6666C66.5035 45.6328 66.029 46.053 65.9697 46.602C65.7306 48.8145 65.1548 50.9782 64.2619 53.0187C64.0408 53.5243 64.2431 54.1207 64.7396 54.3627L71.9876 57.8948Z"/>
</mask>
<path d="M71.9876 57.8948C72.4844 58.1369 73.0868 57.9321 73.3153 57.4295C74.7847 54.1975 75.7032 50.7449 76.0331 47.2133C76.0843 46.6654 75.6638 46.1933 75.1123 46.1595L67.0568 45.6666C66.5035 45.6328 66.029 46.053 65.9697 46.602C65.7306 48.8145 65.1548 50.9782 64.2619 53.0187C64.0408 53.5243 64.2431 54.1207 64.7396 54.3627L71.9876 57.8948Z" fill="#F3DE09" stroke="#F3DE09" stroke-width="100" mask="url(#path-4-inside-3_4_59)"/>
<mask id="path-5-inside-4_4_59" fill="white">
<path d="M61.2062 69.9433C61.5084 70.4056 62.13 70.5388 62.584 70.225C65.5135 68.2003 68.0839 65.7052 70.1898 62.8419C70.517 62.397 70.3978 61.7735 69.9395 61.4616L63.282 56.9321C62.8253 56.6214 62.205 56.7383 61.8727 57.1769C60.5246 58.957 58.9119 60.5228 57.0901 61.8206C56.6403 62.1409 56.508 62.7572 56.8104 63.2198L61.2062 69.9433Z"/>
</mask>
<path d="M61.2062 69.9433C61.5084 70.4056 62.13 70.5388 62.584 70.225C65.5135 68.2003 68.0839 65.7052 70.1898 62.8419C70.517 62.397 70.3978 61.7735 69.9395 61.4616L63.282 56.9321C62.8253 56.6214 62.205 56.7383 61.8727 57.1769C60.5246 58.957 58.9119 60.5228 57.0901 61.8206C56.6403 62.1409 56.508 62.7572 56.8104 63.2198L61.2062 69.9433Z" fill="#F3DE09" stroke="#F3DE09" stroke-width="100" mask="url(#path-5-inside-4_4_59)"/>
<mask id="path-6-inside-5_4_59" fill="white">
<path d="M45.767 75.1808C45.7943 75.7321 46.2633 76.1585 46.8135 76.1145C50.37 75.8302 53.8543 74.9597 57.1234 73.5386C57.6316 73.3176 57.8443 72.7172 57.6054 72.2173L54.1448 64.9743C53.9075 64.4776 53.3142 64.2685 52.8063 64.481C50.7394 65.3459 48.5519 65.8929 46.3194 66.1032C45.7692 66.155 45.3433 66.6223 45.3706 67.1742L45.767 75.1808Z"/>
</mask>
<path d="M45.767 75.1808C45.7943 75.7321 46.2633 76.1585 46.8135 76.1145C50.37 75.8302 53.8543 74.9597 57.1234 73.5386C57.6316 73.3176 57.8443 72.7172 57.6054 72.2173L54.1448 64.9743C53.9075 64.4776 53.3142 64.2685 52.8063 64.481C50.7394 65.3459 48.5519 65.8929 46.3194 66.1032C45.7692 66.155 45.3433 66.6223 45.3706 67.1742L45.767 75.1808Z" fill="#F3DE09" stroke="#F3DE09" stroke-width="100" mask="url(#path-6-inside-5_4_59)"/>
<mask id="path-7-inside-6_4_59" fill="white">
<path d="M69.8172 26.4971C70.2795 26.1951 70.4086 25.5753 70.0896 25.124C68.0384 22.222 65.5158 19.6795 62.6254 17.6005C62.177 17.2779 61.5544 17.3976 61.2447 17.8524L56.7197 24.4966C56.4088 24.9529 56.5314 25.573 56.9767 25.9031C58.7709 27.2333 60.3516 28.8268 61.6643 30.629C61.9896 31.0755 62.609 31.2059 63.0711 30.904L69.8172 26.4971Z"/>
</mask>
<path d="M69.8172 26.4971C70.2795 26.1951 70.4086 25.5753 70.0896 25.124C68.0384 22.222 65.5158 19.6795 62.6254 17.6005C62.177 17.2779 61.5544 17.3976 61.2447 17.8524L56.7197 24.4966C56.4088 24.9529 56.5314 25.573 56.9767 25.9031C58.7709 27.2333 60.3516 28.8268 61.6643 30.629C61.9896 31.0755 62.609 31.2059 63.0711 30.904L69.8172 26.4971Z" fill="#F3DE09" stroke="#F3DE09" stroke-width="100" mask="url(#path-7-inside-6_4_59)"/>
</svg>
